<?xml version="1.0" encoding="utf-8"?>
<!-- Generator: Adobe Illustrator 19.1.0, SVG Export Plug-In . SVG Version: 6.00 Build 0)  -->
<svg version="1.1" id="Layer_1" xmlns="http://www.w3.org/2000/svg" xmlns:xlink="http://www.w3.org/1999/xlink" x="0px" y="0px"
	 viewBox="80 -2 200 44" style="enable-background:new 80 -2 200 44;" xml:space="preserve">
<style type="text/css">
	.st0{fill:#7FEA13;}
</style>
<g>
	<g>
		<path class="st0" d="M143.5,14h-0.9c-2.1,0-3.5,0.4-4.6,1.3c-1.1-1-2.5-1.3-4.6-1.3h-0.8c-4.3,0-6.3,2.5-6.3,6.2V33
			c0,0.4,0.2,0.7,0.6,0.7h1.8c0.4,0,0.6-0.3,0.6-0.7V20.2c0-3,1.3-3.5,3.2-3.5h0.8c2.3,0,3,0.4,3,2.4V33c0,0.4,0.2,0.7,0.6,0.7h1.8
			c0.4,0,0.6-0.3,0.6-0.7V19.1c0-2,0.8-2.4,3-2.4h0.8c1.9,0,3.2,0.4,3.2,3.5V33c0,0.4,0.2,0.7,0.6,0.7h1.8c0.4,0,0.6-0.3,0.6-0.7
			V20.2C149.8,16.5,147.7,14,143.5,14z"/>
		<path class="st0" d="M155.8,11.1c0.4,0,0.7-0.3,0.7-0.7V7.6c0-0.4-0.3-0.7-0.7-0.7H154c-0.4,0-0.7,0.3-0.7,0.7v2.8
			c0,0.4,0.3,0.7,0.7,0.7H155.8z"/>
		<path class="st0" d="M156,14.2h-1.7c-0.4,0-0.7,0.3-0.7,0.7V33c0,0.4,0.3,0.7,0.7,0.7h1.7c0.4,0,0.7-0.3,0.7-0.7V14.9
			C156.7,14.5,156.4,14.2,156,14.2z"/>
		<path class="st0" d="M169,14h-2.5c-2.4,0-6.2,0.9-6.2,6.4V33c0,0.4,0.2,0.7,0.6,0.7h1.8c0.4,0,0.6-0.3,0.6-0.7V20.4
			c0-2.7,0.7-3.7,3.1-3.7h2.5c2.4,0,3.1,1,3.1,3.7V33c0,0.4,0.2,0.7,0.6,0.7h1.8c0.4,0,0.6-0.3,0.6-0.7V20.4
			C175.2,14.9,171.4,14,169,14z"/>
		<path class="st0" d="M192.6,7h-1.8c-0.4,0-0.7,0.3-0.7,0.7v6.6c-1.4-0.2-3-0.4-4.2-0.4c-5.2,0-7.7,3.1-7.7,8.7v2.6
			c0,5.3,2.4,8.7,7.7,8.7c2.2,0,4.3-0.2,6.5-0.6c0.6-0.1,0.7-0.4,0.7-0.8V7.7C193.3,7.3,193,7,192.6,7z M190.1,31
			c-1.2,0.1-2.9,0.2-4.2,0.2c-3.5,0-4.6-2.2-4.6-6v-2.6c0-3.8,1.1-6,4.6-6c1.1,0,3,0,4.2,0.2V31z"/>
		<path class="st0" d="M211.6,14.2h-2c-0.3,0-0.5,0.2-0.7,0.7l-4.1,15.4c-0.2,0.8-0.4,1-0.7,1c-0.4,0-0.5-0.2-0.7-1l-4.1-15.4
			c-0.1-0.5-0.4-0.7-0.7-0.7h-1.9c-0.4,0-0.6,0.2-0.6,0.6c0,0.1,0,0.1,0,0.2l4.8,16.9c0.5,1.6,1.7,2,3.2,2s2.7-0.4,3.2-2l4.8-16.9
			c0-0.1,0-0.2,0-0.2C212.1,14.4,211.9,14.2,211.6,14.2z"/>
		<path class="st0" d="M221.1,14c-1.2,0-2.2,0-3.1,0.1c-0.9,0.1-1.7,0.2-2.4,0.3c-0.5,0.1-0.7,0.3-0.7,0.7v1.2
			c0,0.2,0.1,0.4,0.2,0.5s0.3,0.1,0.4,0.1h0.2c0.7-0.1,1.5-0.1,2.4-0.2c0.9-0.1,1.9-0.1,3-0.1c1.4,0,2.4,0.3,2.9,0.9
			c0.6,0.6,0.8,1.6,0.8,3.1V22h-2.6c-1.6,0-2.9,0.1-4,0.4c-1.1,0.2-2,0.6-2.6,1.1c-0.7,0.5-1.2,1.1-1.5,1.8
			c-0.3,0.7-0.4,1.6-0.4,2.5v0.4c0,1.1,0.2,2,0.5,2.8c0.3,0.7,0.7,1.3,1.3,1.8c0.5,0.5,1.1,0.8,1.8,0.9c0.7,0.2,1.4,0.3,2.2,0.3
			c1,0,1.9-0.2,2.8-0.5c0.9-0.3,1.8-0.7,2.6-1.2v0.8c0,0.2,0.1,0.4,0.2,0.5c0.1,0.1,0.3,0.2,0.5,0.2h1.6c0.2,0,0.4-0.1,0.5-0.2
			c0.1-0.1,0.2-0.3,0.2-0.5V20.7c0-2.1-0.5-3.7-1.6-4.9C225.3,14.5,223.5,14,221.1,14z M224.8,30c-0.8,0.5-1.7,0.8-2.4,1.1
			c-0.8,0.2-1.5,0.4-2.4,0.4c-1,0-1.8-0.2-2.4-0.7c-0.6-0.4-0.8-1.3-0.8-2.6v-0.4c0-0.6,0.1-1.2,0.2-1.6c0.2-0.4,0.4-0.8,0.9-1.1
			c0.4-0.3,1-0.5,1.7-0.6s1.6-0.2,2.7-0.2h2.6L224.8,30L224.8,30z"/>
		<path class="st0" d="M234.2,7h-1.8c-0.4,0-0.6,0.3-0.6,0.7V33c0,0.4,0.3,0.7,0.6,0.7h1.8c0.4,0,0.6-0.4,0.6-0.7V7.7
			C234.8,7.3,234.6,7,234.2,7z"/>
		<path class="st0" d="M241.5,7h-1.8c-0.4,0-0.6,0.3-0.6,0.7V33c0,0.4,0.3,0.7,0.6,0.7h1.8c0.4,0,0.6-0.4,0.6-0.7V7.7
			C242.2,7.3,241.9,7,241.5,7z"/>
		<path class="st0" d="M253.4,14c-5.1,0-7.9,3.2-7.9,8.3v3.2c0,6.6,4,8.5,8,8.5c2.4,0,4.3-0.2,6.3-0.6c0.6-0.1,0.7-0.4,0.7-0.8v-1.2
			c0-0.4-0.3-0.5-0.6-0.5h-0.2c-1.6,0.2-4.3,0.4-6.3,0.4c-3.3,0-4.9-1.6-4.9-5.8V25h11.9c0.4,0,0.7-0.3,0.7-0.8v-1.9
			C261.2,17.2,258.6,14,253.4,14z M258.1,22.6h-9.4v-0.3c0-3.8,1.7-5.6,4.7-5.6c3.1,0,4.6,1.6,4.6,5.6L258.1,22.6L258.1,22.6z"/>
		<path class="st0" d="M278.8,14.2h-1.7c-0.4,0-0.7,0.3-0.7,0.7v15.9c-1,0.2-2.8,0.5-3.9,0.5c-3,0-4.8-0.9-4.8-4.7V14.9
			c0-0.4-0.3-0.7-0.7-0.7h-1.7c-0.4,0-0.7,0.3-0.7,0.7v11.7c0,5.9,3.9,7.3,7.9,7.3c1.1,0,3.1-0.2,3.9-0.4v0.2c0,3.7-1,4.5-4.2,4.5
			c-2,0-4.7-0.3-5.8-0.4h-0.1c-0.4,0-0.6,0.2-0.6,0.6v1c0,0.4,0.2,0.6,0.7,0.7c0.8,0.2,3.2,0.6,5.8,0.6c4.8,0,7.2-1.5,7.2-7V14.9
			C279.5,14.5,279.2,14.2,278.8,14.2z"/>
		<path class="st0" d="M110.5,4c-0.1,0.1-0.2,0.3-0.3,0.5c-0.1,0.1-0.2,0.3-0.2,0.4c0,0.1,0,0.1-0.1,0.2c-0.2,0.6-0.5,1.2-0.7,1.9
			c0,0,0,0,0,0.1c-0.1,0.3-0.1,0.6-0.2,0.9c-1.1,4.9-1.4,11.9-1.4,11.9s1.4,0.8,10.3-7C126.7,5.1,132-2,132-2S114.5-0.6,110.5,4z"/>
	</g>
	<path class="st0" d="M102,4c0.1,0.1,0.2,0.3,0.3,0.5c0.1,0.1,0.2,0.3,0.2,0.4c0,0.1,0,0.1,0.1,0.2c0.2,0.6,0.5,1.2,0.7,1.9
		c0,0,0,0,0,0.1c0.1,0.3,0.1,0.6,0.2,0.9c1.1,4.9,1.4,11.9,1.4,11.9s-1.4,0.8-10.3-7C85.8,5.1,80.5-2,80.5-2S98-0.6,102,4z"/>
</g>
</svg>
